<?xml version="1.0" encoding="utf-8"?>
<!-- Generator: Adobe Illustrator 16.0.0, SVG Export Plug-In . SVG Version: 6.00 Build 0)  -->
<!DOCTYPE svg PUBLIC "-//W3C//DTD SVG 1.1//EN" "http://www.w3.org/Graphics/SVG/1.1/DTD/svg11.dtd">
<svg version="1.1" id="Layer_1" xmlns="http://www.w3.org/2000/svg" xmlns:xlink="http://www.w3.org/1999/xlink" x="0px" y="0px"
	 width="133.48px" height="133.48px" viewBox="0 0 133.48 133.48" enable-background="new 0 0 133.48 133.48" xml:space="preserve">
<polyline fill="#E5475E" points="0,133.481 0,69.694 69.804,0 133.481,0 "/>
<g enable-background="new    ">
	<path fill="#FFFFFF" d="M12.274,66.804l8.861,8.862l-1.533,1.533l-8.861-8.861L12.274,66.804z"/>
	<path fill="#FFFFFF" d="M21.199,63.102l1.482-1.483l6.25,6.25l-1.457,1.458l-0.99-0.837c0.381,1.091-0.24,2.421-0.925,3.132
		c-1.838,1.863-4.349,2.092-6.542-0.102c-2.154-2.155-1.851-4.716-0.012-6.529c0.836-0.836,2.028-1.242,3.004-0.977L21.199,63.102z
		 M20.565,69.973c1.192,1.191,2.726,1.078,3.752,0.051c2.435-2.434-1.355-6.224-3.789-3.79C19.5,67.26,19.373,68.781,20.565,69.973z
		"/>
	<path fill="#FFFFFF" d="M29.731,57.891c-0.861,0.025-1.508,0.393-2.104,0.989c-0.735,0.735-0.912,1.37-0.52,1.762
		c0.405,0.406,1.002,0.267,1.851-0.482c1.255-1.104,3.018-2.333,4.679-0.672c1.103,1.103,1.152,2.954-0.635,4.742
		c-0.988,0.989-2.143,1.812-4.006,1.775l-0.343-1.864c0.938,0.051,2.321-0.595,3.03-1.28c0.596-0.57,0.837-1.42,0.381-1.876
		c-0.432-0.431-0.964-0.253-1.902,0.583c-1.268,1.091-3.105,2.066-4.525,0.646c-1.445-1.445-0.457-3.448,0.685-4.589
		c0.976-0.976,1.901-1.521,3.258-1.61L29.731,57.891z"/>
	<path fill="#FFFFFF" d="M30.632,50.144l1.774,1.775l1.725-1.725l1.332,1.331l-1.737,1.737l2.7,2.7
		c0.596,0.596,1.217,0.558,1.699,0.076c0.24-0.241,0.443-0.596,0.557-0.938l1.75,0.888c-0.266,0.622-0.557,1.064-1.014,1.546
		c-1.306,1.407-2.967,1.521-4.526-0.038l-2.7-2.7l-1.166,1.166l-1.331-1.331l1.166-1.166l-1.61-1.61L30.632,50.144z"/>
	<path fill="#FFFFFF" d="M43.577,44.045c-0.862,0.025-1.509,0.394-2.104,0.989c-0.735,0.735-0.912,1.369-0.52,1.762
		c0.406,0.406,1.002,0.267,1.851-0.481c1.255-1.104,3.018-2.333,4.679-0.672c1.103,1.103,1.152,2.954-0.635,4.742
		c-0.988,0.989-2.143,1.812-4.006,1.775l-0.343-1.864c0.938,0.051,2.321-0.595,3.03-1.28c0.596-0.571,0.837-1.42,0.381-1.876
		c-0.432-0.431-0.964-0.253-1.902,0.583c-1.268,1.091-3.105,2.066-4.525,0.646c-1.445-1.445-0.457-3.448,0.685-4.589
		c0.976-0.976,1.901-1.521,3.258-1.61L43.577,44.045z"/>
	<path fill="#FFFFFF" d="M49.055,42.599c0.875,0.672,2.104,0.558,3.195-0.532c0.57-0.57,1.103-1.534,1.09-2.257l1.965-0.012
		c0.025,1.343-0.723,2.75-1.674,3.702c-2.154,2.155-4.767,2.104-6.77,0.101c-1.902-1.902-1.979-4.564,0.051-6.592
		c2.092-2.092,4.691-2.104,7.023,0.71L49.055,42.599z M51.172,37.921c-0.912-0.709-1.953-0.481-2.84,0.406
		c-0.837,0.836-1.115,1.927-0.533,2.967L51.172,37.921z"/>
	<path fill="#FFFFFF" d="M56.408,27.892l1.483-1.483l6.25,6.25l-1.458,1.458l-0.989-0.837c0.382,1.09-0.241,2.421-0.925,3.131
		c-1.838,1.864-4.35,2.092-6.542-0.101c-2.155-2.155-1.851-4.717-0.013-6.529c0.838-0.837,2.029-1.243,3.004-0.977L56.408,27.892z
		 M55.775,34.763c1.192,1.192,2.726,1.077,3.753,0.05c2.434-2.434-1.356-6.224-3.791-3.79C54.71,32.051,54.582,33.572,55.775,34.763
		z"/>
	<path fill="#FFFFFF" d="M59.351,21.426l1.774,1.775l1.725-1.724l1.331,1.331l-1.737,1.737l2.701,2.7
		c0.596,0.596,1.217,0.558,1.699,0.076c0.24-0.241,0.442-0.596,0.557-0.938l1.75,0.887c-0.266,0.622-0.558,1.065-1.014,1.547
		c-1.307,1.407-2.967,1.521-4.526-0.039l-2.7-2.7l-1.166,1.167l-1.332-1.331l1.167-1.167l-1.61-1.61L59.351,21.426z"/>
	<path fill="#FFFFFF" d="M69.735,17.888c-0.863,0.025-1.51,0.394-2.104,0.989c-0.735,0.735-0.913,1.37-0.521,1.762
		c0.406,0.406,1.002,0.267,1.852-0.481c1.254-1.104,3.018-2.333,4.678-0.672c1.104,1.103,1.153,2.954-0.635,4.742
		c-0.988,0.989-2.143,1.812-4.006,1.775l-0.342-1.864c0.938,0.051,2.32-0.595,3.029-1.28c0.597-0.571,0.838-1.42,0.381-1.876
		c-0.431-0.431-0.963-0.253-1.902,0.583c-1.267,1.09-3.105,2.066-4.525,0.646c-1.445-1.445-0.456-3.448,0.686-4.589
		c0.976-0.976,1.9-1.521,3.258-1.61L69.735,17.888z"/>
</g>
<g enable-background="new    ">
	<path fill="#FFFFFF" d="M31.744,79.428l1.482-1.482l6.25,6.25l-1.458,1.457l-0.989-0.837c0.381,1.091-0.24,2.422-0.926,3.132
		c-1.837,1.863-4.348,2.092-6.541-0.102c-2.155-2.154-1.851-4.717-0.012-6.528c0.836-0.837,2.028-1.243,3.004-0.978L31.744,79.428z
		 M31.11,86.299c1.191,1.192,2.726,1.078,3.752,0.051c2.435-2.434-1.355-6.225-3.789-3.79C30.045,83.586,29.918,85.108,31.11,86.299
		z"/>
	<path fill="#FFFFFF" d="M40.606,70.539l3.627,8.951l-1.674,1.674l-8.963-3.614l1.686-1.686l2.929,1.204l3.601,1.674l-1.66-3.562
		l-1.23-2.954L40.606,70.539z"/>
	<path fill="#FFFFFF" d="M46.324,64.847l1.483-1.483l6.25,6.25L52.6,71.073l-0.988-0.838c0.381,1.091-0.242,2.422-0.926,3.131
		c-1.838,1.865-4.35,2.093-6.542-0.1c-2.155-2.156-1.851-4.717-0.013-6.529c0.838-0.837,2.029-1.243,3.005-0.977L46.324,64.847z
		 M45.691,71.719c1.192,1.191,2.726,1.076,3.753,0.05c2.434-2.435-1.356-6.224-3.791-3.79
		C44.626,69.006,44.498,70.527,45.691,71.719z"/>
	<path fill="#FFFFFF" d="M49.038,58.609c1.204,1.204-0.622,3.03-1.825,1.826C46.008,59.231,47.834,57.405,49.038,58.609z
		 M49.089,62.032l6.275,6.275l1.546-1.546l-6.275-6.275L49.089,62.032z"/>
	<path fill="#FFFFFF" d="M50.979,54.97l8.861,8.861l-1.533,1.534l-8.861-8.861L50.979,54.97z"/>
	<path fill="#FFFFFF" d="M59.905,51.268l1.482-1.483l6.25,6.25l-1.457,1.458l-0.99-0.837c0.381,1.091-0.24,2.422-0.925,3.131
		c-1.838,1.864-4.349,2.092-6.542-0.101c-2.154-2.155-1.851-4.716-0.012-6.529c0.837-0.837,2.028-1.242,3.004-0.977L59.905,51.268z
		 M59.27,58.139c1.192,1.192,2.726,1.078,3.752,0.051c2.435-2.434-1.355-6.224-3.789-3.79C58.205,55.427,58.078,56.947,59.27,58.139
		z"/>
	<path fill="#FFFFFF" d="M61.502,44.447l3.461,3.461c-0.279-1.014,0.394-2.396,1.053-3.055c1.825-1.826,4.297-2.067,6.452,0.088
		c2.054,2.053,1.89,4.653,0.052,6.491c-0.762,0.761-1.788,1.281-3.018,1.015l0.76,0.963l-1.445,1.445l-8.861-8.861L61.502,44.447z
		 M67.334,50.075c1.127,1.128,2.674,1.001,3.65,0.025c0.988-0.989,1.027-2.522-0.062-3.613c-1.129-1.128-2.612-1.04-3.602-0.051
		C66.345,47.413,66.243,48.985,67.334,50.075z"/>
	<path fill="#FFFFFF" d="M69.414,36.535l8.861,8.861l-1.534,1.534l-8.861-8.861L69.414,36.535z"/>
	<path fill="#FFFFFF" d="M78.377,40.148c0.875,0.672,2.104,0.558,3.195-0.532c0.57-0.571,1.104-1.534,1.09-2.257l1.965-0.012
		c0.025,1.343-0.723,2.751-1.673,3.702c-2.155,2.155-4.768,2.104-6.771,0.102c-1.902-1.902-1.978-4.564,0.051-6.593
		c2.092-2.092,4.691-2.104,7.023,0.71L78.377,40.148z M80.494,35.469c-0.912-0.709-1.953-0.482-2.84,0.405
		c-0.837,0.837-1.115,1.928-0.532,2.967L80.494,35.469z"/>
	<path fill="#FFFFFF" d="M80.254,25.695l6.541,6.541l-1.66,1.661l-6.541-6.541L80.254,25.695z M88.393,33.453
		c1.332,1.332-0.697,3.36-2.028,2.028C85.021,34.137,87.049,32.109,88.393,33.453z"/>
</g>
</svg>
