<?xml version="1.0" encoding="utf-8"?>
<!-- Generator: Adobe Illustrator 16.0.0, SVG Export Plug-In . SVG Version: 6.00 Build 0)  -->
<!DOCTYPE svg PUBLIC "-//W3C//DTD SVG 1.1//EN" "http://www.w3.org/Graphics/SVG/1.1/DTD/svg11.dtd">
<svg version="1.1" id="Layer_1" xmlns="http://www.w3.org/2000/svg" xmlns:xlink="http://www.w3.org/1999/xlink" x="0px" y="0px"
	 width="75.879px" height="74.109px" viewBox="0 0 75.879 74.109" enable-background="new 0 0 75.879 74.109" xml:space="preserve">
<path fill="#47475C" d="M41.123,6.148"/>
<path fill="#47475C" d="M41.123,6.148"/>
<g>
	<circle fill="#E5475E" cx="38.508" cy="20.915" r="19.599"/>
	<path fill="#47475C" d="M23.274,3.475"/>
	<path fill="#FFFFFF" d="M37.65,30.085c-0.949,0-1.719-0.772-1.719-1.72c0-0.401,0.146-0.793,0.41-1.104l0.134-0.159V14.072
		c0,0-0.691,0.003-0.694,0.003c-1.871,0-3.487,0.004-3.487,2.73v10.297l0.135,0.159c0.265,0.311,0.41,0.703,0.41,1.104
		c0,0.947-0.77,1.72-1.718,1.72c-0.947,0-1.719-0.772-1.719-1.72c0-0.401,0.147-0.793,0.412-1.104l0.135-0.158l0.013-11.951
		c0.205-2.012,1.906-3.525,3.966-3.525h7.526c2.058,0,3.754,1.507,3.967,3.513v5.005l0.407,0.12c0.19,0.057,0.356,0.185,0.456,0.356
		c0.138,0.239,0.138,0.536-0.003,0.777l-1.363,2.36c-0.136,0.24-0.395,0.389-0.672,0.389c-0.275,0-0.532-0.149-0.671-0.389
		l-1.365-2.361c-0.138-0.24-0.137-0.537,0.004-0.776c0.098-0.171,0.264-0.3,0.453-0.356l0.407-0.12v-3.136
		c0-2.934-1.885-2.934-3.397-2.934l-0.854-0.002v13.029l0.136,0.159c0.264,0.31,0.41,0.702,0.41,1.104
		C39.368,29.312,38.598,30.085,37.65,30.085z"/>
	<circle fill="#3AAF9B" cx="44.129" cy="28.365" r="2.292"/>
	<circle fill="#57566F" cx="31.121" cy="28.365" r="0.858"/>
	<circle fill="#EBCE62" cx="37.649" cy="28.365" r="0.858"/>
	<path fill="#FFFFFF" d="M9.307,64.135v-6.478c0-1.596-0.779-3.042-2.314-3.042c-1.513,0-2.407,1.446-2.407,3.042v6.478H1.789
		V52.014h2.59l0.206,1.472c0.596-1.226,1.902-1.668,2.98-1.668c1.352,0,2.705,0.59,3.346,2.257c1.009-1.717,2.315-2.207,3.783-2.207
		c3.209,0,4.79,2.109,4.79,5.74v6.527h-2.796v-6.527c0-1.595-0.618-2.944-2.132-2.944c-1.513,0-2.453,1.398-2.453,2.994v6.478H9.307
		z"/>
	<path fill="#FFFFFF" d="M24.709,59.155c0.183,1.496,1.398,2.575,3.369,2.575c1.031,0,2.383-0.417,3.026-1.128l1.787,1.889
		c-1.192,1.326-3.14,1.963-4.859,1.963c-3.897,0-6.212-2.576-6.212-6.452c0-3.681,2.339-6.33,6.006-6.33
		c3.782,0,6.143,2.503,5.708,7.483H24.709z M30.852,56.677c-0.182-1.571-1.33-2.356-2.934-2.356c-1.513,0-2.75,0.785-3.163,2.356
		H30.852z"/>
	<path fill="#FFFFFF" d="M38.277,52.039l0.205,1.399c0.872-1.497,2.041-1.719,3.187-1.719c1.17,0,2.292,0.491,2.911,1.153
		l-1.26,2.602c-0.573-0.517-1.102-0.784-2.019-0.784c-1.466,0-2.819,0.834-2.819,3.066v6.379h-2.796V52.039H38.277z"/>
	<path fill="#FFFFFF" d="M54.503,50.813l2.063,1.667l-1.262,1.719c0.872,1.055,1.193,2.256,1.193,3.581
		c0,1.498-0.525,3.607-2.383,4.514c1.879,1.007,2.336,2.455,2.336,4.001c0,3.337-2.384,5.397-5.662,5.397
		c-3.277,0-5.729-2.134-5.729-5.397h2.772c0,1.569,1.353,2.602,2.956,2.602c1.605,0,2.866-0.934,2.866-2.602
		c0-1.669-1.468-2.43-2.866-2.43c-3.528,0-5.729-2.306-5.729-6.085c0-3.778,2.567-6.134,5.729-6.134
		c0.896,0,1.812,0.124,2.592,0.688L54.503,50.813z M47.833,57.78c0,2.11,1.329,3.362,2.956,3.362c1.605,0,2.937-1.275,2.937-3.362
		c0-2.086-1.331-3.41-2.937-3.41C49.162,54.37,47.833,55.671,47.833,57.78z"/>
	<path fill="#FFFFFF" d="M60.669,59.155c0.182,1.496,1.397,2.575,3.368,2.575c1.031,0,2.385-0.417,3.026-1.128l1.788,1.889
		c-1.192,1.326-3.141,1.963-4.859,1.963c-3.897,0-6.212-2.576-6.212-6.452c0-3.681,2.339-6.33,6.006-6.33
		c3.781,0,6.142,2.503,5.707,7.483H60.669z M66.812,56.677c-0.184-1.571-1.33-2.356-2.935-2.356c-1.513,0-2.751,0.785-3.162,2.356
		H66.812z"/>
	<path fill="#3AAF9B" d="M74.879,62.589c0,2.331-3.302,2.331-3.302,0C71.577,60.259,74.879,60.259,74.879,62.589z"/>
	<path fill="#47475C" d="M23.274,3.475"/>
	<circle fill="#57566F" cx="31.121" cy="28.365" r="0.858"/>
</g>
</svg>
